<svg xmlns="http://www.w3.org/2000/svg" viewBox="0 0 1000 1000"><title>1</title><path d="M901,562.7c-10.7-31.3-26.3-59.4-46.4-83.5a230.5,230.5,0,0,0-77.9-60.8c-28.3-13.4-59.3-21-92.4-22.6,8.3-20.8,13.1-33.7,13.7-35.3a40,40,0,0,0-75.1-27.6c-.2.5-9.2,24.9-25,62.6H433.6V266.7H852.2a40,40,0,0,0,0-80H433.6V111.1a40,40,0,0,0-80,0v75.6H134.7a40,40,0,1,0,0,80H353.6V395.5H341c-42.7,0-82.2,8.1-117.4,24.1a245.2,245.2,0,0,0-85.2,64.2,272.4,272.4,0,0,0-49.8,88,299.7,299.7,0,0,0-16.1,97.4c0,61.3,18.5,118.5,52.3,161.1a197,197,0,0,0,67.7,55c27.9,13.7,59,20.6,92.5,20.6,29.6,0,59.9-9.5,90.2-28.3,24.9-15.5,50.5-37.7,76-66,40.9-45.4,83.2-108,125.8-186.1,29-53.1,54-105.8,73.6-150h20.3c50,0,92.2,19,122.3,55,27.5,32.9,43.3,78.7,43.3,125.7s-14.7,87.9-41.3,118.1a144.6,144.6,0,0,1-51.2,37c-22.4,9.7-48.3,14.6-77,14.6H565.9a40,40,0,0,0,0,80H667c77.7,0,142.8-27.2,188.2-78.7,39.5-44.9,61.3-105.6,61.3-171A287.4,287.4,0,0,0,901,562.7ZM187.5,780.6c-22.6-28.5-35-68.1-35-111.4,0-50,17-98.6,46.7-133.4a165.2,165.2,0,0,1,57.5-43.4c24.8-11.2,53.1-16.9,84.3-16.9h12.6V794.9c-25.3,20.4-48.5,31-68.6,31C244.1,825.9,211.3,810.7,187.5,780.6ZM506.4,587.9c-24.7,45.3-49.1,84.6-72.8,117.7V475.5H562.7C546.4,510.7,527.4,549.4,506.4,587.9Z" style="fill:#231815"/></svg>