<svg xmlns="http://www.w3.org/2000/svg" viewBox="0 0 1000 1000"><title>3</title><path d="M892,564.6c0,85.2-26.4,164.9-74.5,224.3C760.8,859,678.8,896,580.4,896H283.6a40,40,0,0,1,0-80H580.4c38.8,0,73.9-7.3,104.3-21.7a200.6,200.6,0,0,0,70.6-55.7c18.4-22.8,32.7-49.9,42.5-80.5A308.7,308.7,0,0,0,812,564.6c0-58.1-16.1-114.1-44.1-153.7-14-19.8-30.5-35.1-49.2-45.6A131,131,0,0,0,660.5,349a35.9,35.9,0,0,1-4.7.3,41.8,41.8,0,0,1-6.1-.5H305.2c-33.1,0-56.9,10.2-72.8,31.1-18.3,24-20.3,53.9-20.3,65.7a40,40,0,0,1-80,0c0-24.7,4.8-72.3,36.7-114.2,21.7-28.5,63.1-62.6,136.4-62.6H612.7c-4-24.3-11.9-44.4-23.4-59.2-16.5-21.3-40.4-31.6-73.2-31.6H353.3a40,40,0,0,1,0-80H516.1c57.5,0,104.7,21.6,136.4,62.5,22.8,29.4,36.7,66.9,41.5,112a210.3,210.3,0,0,1,63.8,23c29.1,16.3,54.5,39.6,75.4,69.1C871.1,418.2,892,489.2,892,564.6Z" style="fill:#231815"/></svg>