<svg xmlns="http://www.w3.org/2000/svg" viewBox="0 0 495 1000"><title>0061</title><path d="M404.3,740a30,30,0,0,1-30-30V685.7a200.6,200.6,0,0,1-22.4,18c-41.2,28.6-90.7,39.5-147.1,32.5-27.1-3.3-51.4-13-72.4-28.8-18.4-13.9-33.9-32.2-46-54.5-19.9-36.8-29.9-83.5-27.2-128.1,2.2-36.1,10.6-69.7,25-99.9a228.8,228.8,0,0,1,55.6-73.6,216.4,216.4,0,0,1,74.3-42.6A211.7,211.7,0,0,1,298,298.2c36.6,2.7,70.5,17.8,95.5,42.5s40.8,61.1,40.8,98.7V710A30,30,0,0,1,404.3,740ZM282.4,357.6a157.9,157.9,0,0,0-103.1,38.9c-25.1,22-56,62.7-60.2,131.9-2,33.2,5.5,69.1,20.1,95.9,16.7,30.8,41.3,48.4,73,52.4,41.9,5.2,76.4-2.1,105.5-22.3,21.9-15.1,40.4-37.3,56.6-67.5V439.4c0-21.8-7.9-41.2-23-56.1s-35.4-23.6-57.8-25.3C289.8,357.7,286.1,357.6,282.4,357.6Z" style="fill:#231815"/></svg>