<svg xmlns="http://www.w3.org/2000/svg" viewBox="0 0 487 1000"><title>0063</title><path d="M248.1,740A196.4,196.4,0,0,1,170,723.4a191.4,191.4,0,0,1-70.9-52.8c-51.7-62.1-50.3-141-40-196.2C67,431.7,87.4,394.2,118,365.8c27.4-25.5,62.3-43.2,101-51.2s75.7-6,110.4,5.1C367.1,331.8,397.7,354,418,384a30,30,0,0,1-49.8,33.6c-25.7-38.2-80.8-55.9-137-44.3-28,5.8-53,18.4-72.4,36.4-21.4,19.9-35.1,45.3-40.7,75.7-11.4,61-2,111.8,27.1,146.8S217.5,680,248.1,680A161.7,161.7,0,0,0,319,663.6a139.8,139.8,0,0,0,55.2-48.5,30,30,0,1,1,50.3,32.7,199,199,0,0,1-79,69.6A220.7,220.7,0,0,1,248.1,740Z" style="fill:#231815"/></svg>