<svg xmlns="http://www.w3.org/2000/svg" viewBox="0 0 500 1000"><title>0065</title><path d="M256.5,739.9C149.6,739.9,75,677.1,61.7,576a289.6,289.6,0,0,1,5.8-108.5,34.7,34.7,0,0,1,2.2-8.4,255.1,255.1,0,0,1,10.5-29.7c20.2-48.2,53.2-85.7,95.5-108.4,34.6-18.6,71.7-28.8,107-29.6s66.4,7.2,92.8,23c40.8,24.4,64.1,65.1,64,111.7,0,29.3-12.1,56.4-34.8,78.3-18.7,18-44.9,32.5-75.6,42-66.4,20.6-151.4,17.3-209.9-16.5a235.9,235.9,0,0,0,2,38.3c4.7,36.2,19.4,64.3,43.5,83.5s54.9,28.2,91.8,28.2c66.9,0,94.6-24.2,129.2-61.1a30,30,0,0,1,43.8,41.1c-17.9,19-39.3,40.6-67.5,56S297.8,739.9,256.5,739.9ZM130.9,464.4c15.4,14.9,39.3,25.8,69.2,31.2,36.2,6.6,76.7,4.2,111.3-6.5,20.4-6.3,68-25.2,68.1-63.2.1-25.2-12.3-46.5-34.8-60-36.6-22-90.5-18.9-140.7,8C170.1,392.1,144.7,424.6,130.9,464.4Z" style="fill:#231815"/></svg>