<svg xmlns="http://www.w3.org/2000/svg" viewBox="0 0 485 1000"><title>b</title><path d="M211.3,745c-36.8,0-74.1-12.4-102.4-34.1C75.7,685.4,57.3,649.2,57.3,609V37a30,30,0,0,1,60,0V330.8c27-13.7,54.5-22.4,82.2-26,42.2-5.4,83.2,1.8,118.7,20.8S381,373.3,399.6,410s27.4,81.3,24.7,127.7c-2.4,40.8-11.7,76.5-27.7,106.2a179.9,179.9,0,0,1-58.2,64.8C291.9,740.3,238.8,745,211.3,745Zm-94-344.6V609c0,27.1,15.3,44.5,28.2,54.3,17.7,13.6,42.3,21.7,65.8,21.7,20.6,0,60.2-3.4,93.4-25.9,36.2-24.6,56.3-66.6,59.7-124.8,4.1-70.4-23.8-128.6-74.6-155.8-24.4-13.1-53-18-82.7-14.2S147.1,380.3,117.3,400.4Z" style="fill:#231815"/></svg>