<svg xmlns="http://www.w3.org/2000/svg" viewBox="0 0 700 1000"><title>FB00</title><path d="M650.6,37.5C631.9,21,609.8,10.7,586.8,7.4a116.1,116.1,0,0,0-64.3,9.4,124.6,124.6,0,0,0-53.6,46.6c-13.8,21.5-21.1,46.9-21.1,73.6V314h-262V137c0-35.2,20.4-56.9,39.4-65.6,21.5-9.7,44.7-5.6,63.8,11.1a30,30,0,1,0,39.6-45C309.9,21,287.8,10.7,264.8,7.4a116.1,116.1,0,0,0-64.3,9.4,124.6,124.6,0,0,0-53.6,46.6c-13.8,21.5-21.1,46.9-21.1,73.6V314h-55a30,30,0,0,0,0,60h55V710a30,30,0,0,0,60,0V374h262V710a30,30,0,0,0,60,0V374h111a30,30,0,0,0,0-60h-111V137c0-35.2,20.4-56.9,39.4-65.6,21.5-9.7,44.7-5.6,63.8,11.1a30,30,0,1,0,39.6-45Z" style="fill:#231815"/></svg>