<svg xmlns="http://www.w3.org/2000/svg" viewBox="0 0 615 1000"><title>ff</title><path d="M449.7,71.4c21.5-9.7,44.7-5.6,63.8,11.1a30,30,0,1,0,39.6-45C534.4,21,512.3,10.7,489.3,7.4A116.1,116.1,0,0,0,425,16.8a124.6,124.6,0,0,0-53.6,46.6c-13.8,21.5-21.1,46.9-21.1,73.6V314h-160V137c0-35.2,20.4-56.9,39.4-65.6,21.5-9.7,44.7-5.6,63.8,11.1a30,30,0,1,0,39.6-45C314.4,21,292.3,10.7,269.3,7.4A116.1,116.1,0,0,0,205,16.8a124.6,124.6,0,0,0-53.6,46.6c-13.8,21.5-21.1,46.9-21.1,73.6V314h-55a30,30,0,0,0,0,60h55V710a30,30,0,0,0,60,0V374h160V710a30,30,0,0,0,60,0V374h115a30,30,0,0,0,0-60h-115V137C410.3,101.8,430.7,80.1,449.7,71.4Z" style="fill:#231815"/></svg>