<svg xmlns="http://www.w3.org/2000/svg" viewBox="0 0 474 1000"><title>uni0067</title><path d="M239.4,955a217.6,217.6,0,0,1-66.3-10.2c-42.7-13.5-76.5-40-95.2-74.5a30,30,0,0,1,52.8-28.6c25.6,47.3,95.5,61.8,148.2,48.4,22.7-5.7,75.4-25.5,75.4-85.1V703.5c-31.4,15.1-63.5,24.2-94.9,26.7-46.6,3.7-89.8-7.1-124.9-31.1-32.3-22.1-55.9-54.4-68.2-93.3s-13.2-85.8-1.1-135C86.3,385,137.4,345.9,176.6,328.2c60.8-27.5,126.5-19.7,164.6.2,33.3,17.4,73.1,53.9,73.1,128.6V805c0,36.8-12.7,70-36.8,95.8-21,22.5-50,38.9-83.8,47.5A225.5,225.5,0,0,1,239.4,955Zm21.3-584.5c-19.2,0-40.1,3.6-59.5,12.4-39.3,17.7-65.4,52.1-77.8,102.3-9.3,37.7-9.2,73.1.1,102.5,8.2,26,23.7,47.4,44.8,61.8,23.8,16.3,53.6,23.5,86.4,20.9s66.7-14.8,99.6-35.5V457c0-48.4-23.3-66.2-40.9-75.4C300.3,374.8,281.5,370.5,260.7,370.5Z" style="fill:#231815"/></svg>