<svg xmlns="http://www.w3.org/2000/svg" viewBox="0 0 486 1000"><title>0064</title><line x1="-8557.7" y1="720" x2="1792.3" y2="720" style="fill:none;stroke:#e60012;stroke-miterlimit:10"/><path d="M242.9,743c-50.2,0-96-19-128.8-53.4-38.8-40.8-57.6-99.6-54.2-170,2.2-44.8,13.4-86.5,32.6-120.5s47.6-62,80.9-78.4,72.6-22.2,112.8-16.2c26.4,3.9,53.2,12.6,80.1,25.9V40a30,30,0,0,1,60,0V586c0,25.8-5.9,49.7-17.5,71-10.6,19.3-25.7,36-44.8,49.6C331.4,729.7,287.3,743,242.9,743Zm12-380.9c-19.7,0-38.2,4.1-55,12.4-22.7,11.2-41.2,29.4-55.1,54s-23.2,58.5-25,93.9c-2.6,53.7,10.5,97.2,37.8,125.8C179.3,671,208.7,683,242.9,683c32.2,0,63.7-9.2,86.3-25.3,24.6-17.5,37.1-41.6,37.1-71.7V399.1C327.2,374.6,289.2,362.1,254.9,362.1Z" style="fill:#231815"/></svg>