<svg xmlns="http://www.w3.org/2000/svg" viewBox="0 0 373 1000"><title>0066</title><line x1="-9712.7" y1="720" x2="637.3" y2="720" style="fill:none;stroke:#e60012;stroke-miterlimit:10"/><path d="M335.9,77.8a30.1,30.1,0,0,1-42.4,2.7c-19.1-16.7-42.3-20.8-63.8-11.1-19,8.7-39.4,30.4-39.4,65.6V312h84a30,30,0,0,1,0,60h-84V708a30,30,0,0,1-60,0V372h-55a30,30,0,0,1,0-60h55V135c0-26.7,7.3-52.1,21.1-73.6A124.6,124.6,0,0,1,205,14.8a116.1,116.1,0,0,1,64.3-9.4c23,3.3,45.1,13.6,63.8,30.1A30,30,0,0,1,335.9,77.8Z" style="fill:#231815"/></svg>